<svg version="1.2" xmlns="http://www.w3.org/2000/svg" viewBox="0 0 886 887" width="32" height="32"><style>.a{fill:#8bc34a}</style><path fill-rule="evenodd" class="a" d="m476.3 19.5l317.4 183.4c20.5 12 33.3 34.2 33.3 58.1v366c0 23.9-12.8 46.1-33.3 58.1l-317.4 183q-15.4 9-33.3 9-17.9 0-33.3-9l-105.8-62.7c-16.2-9-8.1-12-3-13.7 20.9-6.4 25.2-8.9 47.8-21.7 2.1-1.3 5.6-0.9 9 0.4l80.2 48.6c3 1.7 7.2 1.7 9.8 0l317.4-183c3-2.1 4.7-5.5 4.7-9v-366c0-3.9-1.7-7.3-4.7-9l-317.4-183c-2.6-1.7-6.8-1.7-9.4 0l-317.4 183c-3 1.7-4.7 5.1-4.7 9v366q0 1.4 0.3 2.6 0.3 1.3 0.9 2.5 0.7 1.2 1.5 2.1 0.9 1 2 1.8l87.4 49.9c46.5 23.5 75.6-4.2 75.6-32.4v-361.4c0-5.1 4.2-9.4 9.8-9.4h39.6c5.2 0 9.4 4.3 9.4 9.4v361.4c0 63.1-34.5 99.4-94.3 99.4-18.7 0-32.4-0.4-72.9-20l-83.2-47.8c-20.5-12-33.3-34.2-33.3-58.1v-366c0-23.9 12.8-46.1 33.3-58.1l317.4-183.4c9.8-5.6 21.8-8.6 33.3-8.6 11.9 0 23.5 3 33.3 8.6zm209.9 364.8c0.9 2.5-0.4 5.1-2.1 6.8-1.7 2.1-4.3 3-6.4 3h-41.4c-4.3 0-8.1-3-9-7.3-9.8-43.9-35-58-99-58-72.9 0-81.5 25.6-81.5 44.8 0 23 9.9 29.9 108.4 42.7 97.7 13.2 143.8 31.1 143.8 99.8 0 69.1-57.6 108.8-157.9 108.8-139.1 0-168.1-64-168.1-116.9 0-5.5 3.9-9.4 9-9.4h40.9q1.7 0 3.3 0.6 1.5 0.5 2.8 1.6 1.3 1 2.1 2.5 0.9 1.4 1.2 3c6.4 41.8 24.4 62.7 108.8 62.7 66.6 0 95.2-14.9 95.2-50.3 0-20.5-8.1-35.9-111.8-46.1-87-8.5-140.8-28.6-140.8-97.3 0-64 54.2-102 144.6-102 101.6 0 151.9 35 157.9 111z"/></svg>