<svg version="1.2" xmlns="http://www.w3.org/2000/svg" viewBox="0 0 760 760" width="48" height="48"><style>.a{fill:#42d3a5}</style><path fill-rule="evenodd" class="a" d="m757.9 381l-189.2 328h-378.4l-189.2-328 189.2-328h378.5zm-83 0l-147.7-256h-295.3l-147.7 256 147.7 256h295.3z"/><path class="a" d="m582 465c0 27.1-21.9 49-49 49-27.1 0-49-21.9-49-49 0-3.4 0.3-6.8 1-10l-162.7-94.8c-8.1 8.9-18.7 15.6-30.7 19.1l8.6 77.3c19.2 3.5 33.8 20.2 33.8 40.4 0 22.6-18.4 41-41 41-22.6 0-41-18.4-41-41 0-13.6 6.6-25.6 16.8-33.1l-9.2-83.2c-30.6-6.2-53.6-33.3-53.6-65.7 0-37 30-67 67-67 25 0 46.7 13.7 58.2 33.9l123-37.3c2.2-20.6 19.6-36.6 40.8-36.6 22.6 0 41 18.4 41 41 0 22.6-18.4 41-41 41-12.7 0-24-5.7-31.5-14.7l-123.6 37.4c0.1 0.8 0.1 1.5 0.1 2.3 0 6-0.8 11.7-2.2 17.2l163.7 95.3c8.5-7.2 19.5-11.5 31.5-11.5 27.1 0 49 21.9 49 49z"/></svg>