<?xml version="1.0" standalone="no"?><!DOCTYPE svg PUBLIC "-//W3C//DTD SVG 1.1//EN" "http://www.w3.org/Graphics/SVG/1.1/DTD/svg11.dtd"><svg t="1677650177412" class="icon" viewBox="0 0 1024 1024" version="1.1" xmlns="http://www.w3.org/2000/svg" p-id="5047" xmlns:xlink="http://www.w3.org/1999/xlink" width="48" height="48"><path d="M705.8 185H327.3L138.1 513l189.2 328h378.4l189.2-328-189.1-328z m-41.6 584H368.9L221.2 513l147.7-256h295.3l147.7 256-147.7 256z" p-id="5048" fill="#42d3a5"></path><path d="M670 548c-12 0-23 4.3-31.5 11.5l-163.7-95.3c1.4-5.5 2.2-11.2 2.2-17.2 0-0.8 0-1.5-0.1-2.3l123.6-37.4c7.5 9 18.8 14.7 31.5 14.7 22.6 0 41-18.4 41-41s-18.4-41-41-41c-21.2 0-38.6 16-40.8 36.6l-123 37.3C456.7 393.7 435 380 410 380c-37 0-67 30-67 67 0 32.4 23 59.5 53.6 65.7l9.2 83.2c-10.2 7.5-16.8 19.5-16.8 33.1 0 22.6 18.4 41 41 41s41-18.4 41-41c0-20.2-14.6-36.9-33.8-40.4l-8.6-77.3c12-3.5 22.6-10.2 30.7-19.1L622 587c-0.7 3.2-1 6.6-1 10 0 27.1 21.9 49 49 49s49-21.9 49-49-21.9-49-49-49z" p-id="5049" fill="#42d3a5"></path></svg>